<svg width="52" height="46" viewBox="0 0 52 46" fill="none" xmlns="http://www.w3.org/2000/svg">
<path d="M26.4445 0.00393274C12.0876 -0.24135 0.249218 11.1987 0.0039353 25.5556C-0.135385 33.696 3.49284 41.0123 9.26975 45.8777C9.64748 45.5481 10.0527 45.2459 10.503 45.0006L18.2608 40.769C19.2783 40.2137 19.9121 39.1472 19.9121 37.9875V34.8086C19.9121 34.8086 17.6349 32.085 16.7666 28.3008C16.0464 27.8347 15.5637 27.0292 15.5637 26.1119V22.6328C15.5637 21.8675 15.9042 21.1836 16.433 20.7048V15.6756C16.433 15.6756 15.3999 7.84906 25.999 7.84906C36.5982 7.84906 35.5651 15.6756 35.5651 15.6756V20.7048C36.0949 21.1836 36.4343 21.8675 36.4343 22.6328V26.1119C36.4343 27.2814 35.6494 28.2654 34.5839 28.5941C33.9904 30.4396 33.1338 32.1988 32.0016 33.798C31.7161 34.2013 31.4492 34.5427 31.2157 34.8086V38.0679C31.2157 39.2679 31.8937 40.3657 32.967 40.9014L41.2743 45.0546C41.7727 45.3038 42.223 45.6187 42.6381 45.969C48.2403 41.2968 51.8597 34.3112 51.9941 26.4445C52.2414 12.0876 40.8023 0.249216 26.4445 0.00393274Z" fill="#7D8097"/>
</svg>
