<svg width="26" height="26" viewBox="0 0 26 26" fill="none" xmlns="http://www.w3.org/2000/svg">
<g clip-path="url(#clip0)">
<path d="M21.5971 2.60802H16.9529V0.847844C16.9529 0.379641 16.5733 0 16.105 0H9.89482C9.42662 0 9.04697 0.37959 9.04697 0.847844V2.60802H4.40278C3.93457 2.60802 3.55493 2.98761 3.55493 3.45587V6.06384C3.55493 6.53204 3.93452 6.91168 4.40278 6.91168H21.597C22.0652 6.91168 22.4448 6.53209 22.4448 6.06384V3.45587C22.4448 2.98756 22.0653 2.60802 21.5971 2.60802ZM15.2571 2.60802H10.7427V1.69564H15.2571V2.60802Z" fill="#EC4F4F"/>
<path d="M4.73254 8.60725L5.43556 25.1881C5.45476 25.642 5.82835 26 6.28259 26H19.7177C20.1719 26 20.5455 25.642 20.5647 25.1881L21.2677 8.60725H4.73254ZM10.4372 22.5522C10.4372 23.0204 10.0576 23.4 9.58936 23.4C9.12116 23.4 8.74152 23.0204 8.74152 22.5522V12.055C8.74152 11.5868 9.12111 11.2072 9.58936 11.2072C10.0576 11.2072 10.4372 11.5867 10.4372 12.055V22.5522ZM13.8478 22.5522C13.8478 23.0204 13.4682 23.4 13 23.4C12.5317 23.4 12.1521 23.0204 12.1521 22.5522V12.055C12.1521 11.5868 12.5317 11.2072 13 11.2072C13.4682 11.2072 13.8478 11.5867 13.8478 12.055V22.5522ZM17.2585 22.5522C17.2585 23.0204 16.8789 23.4 16.4106 23.4C15.9424 23.4 15.5628 23.0204 15.5628 22.5522V12.055C15.5628 11.5868 15.9424 11.2072 16.4106 11.2072C16.8789 11.2072 17.2585 11.5867 17.2585 12.055V22.5522Z" fill="#EC4F4F"/>
</g>
<defs>
<clipPath id="clip0">
<rect width="26" height="26" fill="white"/>
</clipPath>
</defs>
</svg>
