<svg width="0" height="0" class="hidden">
  <symbol viewBox="0 0 32 32" fill="none" xmlns="http://www.w3.org/2000/svg" id="application">
    <path d="M29.031 2.875H2.97A2.972 2.972 0 0 0 0 5.844v.648a.469.469 0 1 0 .938 0v-.648c0-1.12.91-2.032 2.03-2.032h26.063c1.12 0 2.032.912 2.032 2.032v14.218h-.938v-.067a.469.469 0 0 0-.938 0v.067H6.008a.469.469 0 1 0 0 .938h25.056v.156c0 1.12-.912 2.032-2.032 2.032H2.97a2.034 2.034 0 0 1-2.031-2.032V21h3.07a.469.469 0 1 0 0-.938H2.812V5.845c0-.086.07-.157.157-.157H29.03c.086 0 .157.07.157.157V17.99a.469.469 0 0 0 .937 0V5.844c0-.603-.49-1.094-1.094-1.094H2.97c-.603 0-1.094.49-1.094 1.094v14.218H.937V8.485a.469.469 0 1 0-.937 0v12.672a2.972 2.972 0 0 0 2.969 2.969h8.166c-.098 1.01-.325 1.718-.542 2.188h-2.03c-.776 0-1.407.63-1.407 1.406 0 .775.631 1.406 1.407 1.406h14.874a1.408 1.408 0 0 0 0-2.813h-2.03c-.217-.469-.444-1.176-.542-2.187h8.166A2.972 2.972 0 0 0 32 21.156V5.844a2.972 2.972 0 0 0-2.969-2.969zm-16.955 21.25h7.848c.083.93.267 1.65.468 2.188h-8.784c.201-.538.385-1.258.468-2.188zm11.361 3.125a.47.47 0 0 1 0 .938H8.563a.47.47 0 0 1 0-.938h14.876z"
      fill="#7D8097"></path>
    <path d="M26.43 16.219h-8.94v-2.29a.469.469 0 0 0 .742-.224l.46-1.48.248.572a.47.47 0 0 0 .869-.021l.164-.436.494 1.05a.47.47 0 0 0 .855-.015l.33-.774.132.24a.468.468 0 0 0 .852-.071l.242-.683.19.533a.47.47 0 0 0 .442.31h.001a.469.469 0 0 0 .441-.312l.124-.35.758 2.194a.469.469 0 0 0 .898-.041l.73-2.961a.469.469 0 0 0-.91-.225l-.35 1.421-.678-1.962a.469.469 0 0 0-.442-.315h-.001a.469.469 0 0 0-.442.312l-.132.373-.19-.531a.469.469 0 0 0-.442-.31h-.001a.469.469 0 0 0-.441.312l-.334.941-.093-.169a.47.47 0 0 0-.842.044l-.294.693-.52-1.107a.469.469 0 0 0-.864.034l-.146.39-.29-.669a.468.468 0 0 0-.878.047l-.515 1.657-.168-.294v-3.43a.468.468 0 1 0-.937 0v8.015c0 .26.21.47.469.47h9.408a.469.469 0 0 0 0-.938zM13.429 9.305a5.366 5.366 0 0 0-8.358 0 5.348 5.348 0 0 0-1.196 3.375 5.349 5.349 0 0 0 1.243 3.433 5.366 5.366 0 0 0 8.302-.047 5.349 5.349 0 0 0 1.205-3.386 5.349 5.349 0 0 0-1.196-3.375zm-.544.835c.42.6.697 1.306.778 2.071h-.765a7.403 7.403 0 0 0-.372-1.95 9.46 9.46 0 0 0 .36-.121zM9.25 8.446c.083.2.192.552.294 1.156.01.051.018.103.026.156-.212.006-.424.006-.636 0 .096-.613.212-1.055.316-1.312zm-1.864 1.02a3.1 3.1 0 0 1 .832-.883 8.783 8.783 0 0 0-.125.535c-.036.183-.07.378-.1.582-.24-.024-.471-.056-.694-.093a2.76 2.76 0 0 1 .087-.14zm-.498 1.02c.317.06.65.11.995.146a22.077 22.077 0 0 0-.083 1.58H6.54a6.39 6.39 0 0 1 .347-1.726zM5.615 15.22a4.41 4.41 0 0 1-.778-2.071h.765c.04.686.166 1.346.372 1.95a6.74 6.74 0 0 0-.36.121zm-.013-3.009h-.765a4.41 4.41 0 0 1 .778-2.072c.114.043.233.083.359.122a7.407 7.407 0 0 0-.372 1.95zm.938.938H7.8c.01.55.038 1.082.083 1.58-.345.035-.678.084-.995.145a6.39 6.39 0 0 1-.347-1.725zm.845 2.744a4.213 4.213 0 0 1-.087-.14c.223-.038.455-.07.694-.094.03.205.064.4.1.583.036.176.077.358.125.535a3.106 3.106 0 0 1-.832-.884zm1.433-5.2a13.795 13.795 0 0 0 .864 0c.043.478.071.99.082 1.518H8.736c.011-.562.04-1.069.082-1.518zm.433 6.221c-.083-.2-.192-.553-.294-1.156a11.07 11.07 0 0 1-.026-.157c.212-.005.424-.005.636 0-.096.614-.212 1.055-.316 1.313zm.43-2.247a14.121 14.121 0 0 0-.863 0c-.043-.478-.071-.99-.081-1.518h1.027c-.011.562-.04 1.069-.082 1.518zm1.434-5.2c.03.045.06.092.088.14-.224.037-.456.069-.695.094a12.1 12.1 0 0 0-.1-.583 8.226 8.226 0 0 0-.125-.535c.303.206.585.503.832.883zm0 6.426c-.247.38-.53.678-.832.884a8.27 8.27 0 0 0 .125-.535c.036-.184.07-.378.1-.583.24.025.471.056.695.094a4.486 4.486 0 0 1-.087.14zm.498-1.019c-.317-.06-.65-.11-.995-.146.045-.497.073-1.03.083-1.58h1.259a6.394 6.394 0 0 1-.347 1.726zm-.912-2.663a22.33 22.33 0 0 0-.083-1.58c.345-.035.678-.084.995-.145a6.39 6.39 0 0 1 .347 1.725H10.7zm2.184 3.01a6.687 6.687 0 0 0-.359-.122 7.403 7.403 0 0 0 .372-1.95h.765a4.41 4.41 0 0 1-.778 2.071z"
      fill="#7D8097"></path>
  </symbol>
  <symbol viewBox="0 0 32 32" fill="none" xmlns="http://www.w3.org/2000/svg" id="services">
    <path d="M23.18 6.064a.469.469 0 1 0-.925.155c.033.196.056.394.07.593h-1.433a10.076 10.076 0 0 0-.578-3.01c.288-.083.557-.173.804-.27.226.309.425.638.594.985a.469.469 0 1 0 .843-.41 7.299 7.299 0 0 0-2.638-2.965A7.26 7.26 0 0 0 16 0a7.27 7.27 0 0 0-5.65 2.695A7.247 7.247 0 0 0 8.718 7.28a7.246 7.246 0 0 0 1.676 4.642 7.27 7.27 0 0 0 11.214-.004A7.246 7.246 0 0 0 23.28 7.28c0-.408-.034-.818-.101-1.217zm-3.768-4.132c.381.244.733.526 1.051.841-.165.056-.339.11-.522.16a6.655 6.655 0 0 0-.663-1.083l.134.082zm-1.576 4.88a30.715 30.715 0 0 0-.135-2.538c.595-.056 1.163-.14 1.697-.249.32.843.51 1.792.556 2.787h-2.118zm2.118.938a9.059 9.059 0 0 1-.556 2.787 15.93 15.93 0 0 0-1.697-.248c.077-.79.123-1.649.135-2.539h2.118zm-4.521-4.888c.2-1.134.434-1.66.567-1.856.133.195.366.722.567 1.856.03.173.06.353.086.538-.434.016-.872.016-1.306 0 .027-.185.055-.365.086-.538zM12.72 1.853a6.738 6.738 0 0 0-.66 1.08 9.23 9.23 0 0 1-.52-.159c.355-.35.75-.66 1.18-.92zm1.444 4.96h-2.118a9.056 9.056 0 0 1 .556-2.788c.533.11 1.101.193 1.697.249-.077.79-.123 1.648-.135 2.538zm.135 3.476c-.595.056-1.163.14-1.697.248a9.056 9.056 0 0 1-.556-2.787h2.118c.012.89.058 1.749.135 2.539zm-3.414-6.755c.246.096.514.185.801.268a10.08 10.08 0 0 0-.578 3.01H9.674a6.308 6.308 0 0 1 1.21-3.278zM9.674 7.75h1.434c.045 1.067.243 2.09.578 3.01a9.177 9.177 0 0 0-.801.269A6.308 6.308 0 0 1 9.674 7.75zm1.866 4.038c.164-.056.337-.108.52-.158a6.687 6.687 0 0 0 .66 1.08 6.386 6.386 0 0 1-1.18-.922zm1.717.055a6.323 6.323 0 0 1-.254-.429 15.36 15.36 0 0 1 1.405-.194c.048.343.103.669.163.97.093.461.196.852.311 1.175-.6-.287-1.157-.803-1.625-1.522zm1.314-9.471c-.06.302-.115.627-.162.97a14.95 14.95 0 0 1-1.406-.194c.08-.147.165-.29.254-.428.468-.719 1.024-1.236 1.625-1.522a8.607 8.607 0 0 0-.31 1.174zm1.996 9.328c-.2 1.135-.434 1.661-.567 1.856-.133-.195-.366-.721-.567-1.856a16.06 16.06 0 0 1-.086-.538c.434-.015.872-.015 1.306 0a16.06 16.06 0 0 1-.086.538zm.198-1.472c-.508-.02-1.021-.02-1.53 0a29.78 29.78 0 0 1-.133-2.478h1.796a29.78 29.78 0 0 1-.133 2.478zm-1.663-3.415c.012-.867.057-1.708.133-2.478a19.217 19.217 0 0 0 1.53 0c.076.77.12 1.61.133 2.478h-1.796zm3.64-4.093c.09.137.175.28.255.428-.445.084-.916.15-1.405.195a16.536 16.536 0 0 0-.163-.971 8.607 8.607 0 0 0-.311-1.174c.6.286 1.157.803 1.625 1.522zm0 9.123c-.467.719-1.023 1.235-1.624 1.522.115-.323.218-.714.31-1.174.061-.302.116-.628.163-.971.491.045.961.11 1.406.194-.08.148-.165.291-.254.429zm.538.866a6.647 6.647 0 0 0 .66-1.08c.183.05.356.104.52.16-.355.35-.75.66-1.18.92zm1.835-1.68a9.166 9.166 0 0 0-.801-.268c.335-.921.533-1.944.578-3.011h1.434a6.308 6.308 0 0 1-1.21 3.279z"
      fill="#7D8097"></path>
    <path d="M23.18 6.064a.469.469 0 1 0-.925.155c.033.196.056.394.07.593h-1.433a10.076 10.076 0 0 0-.578-3.01c.288-.083.557-.173.804-.27.226.309.425.638.594.985a.469.469 0 1 0 .843-.41 7.299 7.299 0 0 0-2.638-2.965A7.26 7.26 0 0 0 16 0a7.27 7.27 0 0 0-5.65 2.695A7.247 7.247 0 0 0 8.718 7.28a7.246 7.246 0 0 0 1.676 4.642 7.27 7.27 0 0 0 11.214-.004A7.246 7.246 0 0 0 23.28 7.28c0-.408-.034-.818-.101-1.217zm-3.768-4.132c.381.244.733.526 1.051.841-.165.056-.339.11-.522.16a6.655 6.655 0 0 0-.663-1.083l.134.082zm-1.576 4.88a30.715 30.715 0 0 0-.135-2.538c.595-.056 1.163-.14 1.697-.249.32.843.51 1.792.556 2.787h-2.118zm2.118.938a9.059 9.059 0 0 1-.556 2.787 15.93 15.93 0 0 0-1.697-.248c.077-.79.123-1.649.135-2.539h2.118zm-4.521-4.888c.2-1.134.434-1.66.567-1.856.133.195.366.722.567 1.856.03.173.06.353.086.538-.434.016-.872.016-1.306 0 .027-.185.055-.365.086-.538zM12.72 1.853a6.738 6.738 0 0 0-.66 1.08 9.23 9.23 0 0 1-.52-.159c.355-.35.75-.66 1.18-.92zm1.444 4.96h-2.118a9.056 9.056 0 0 1 .556-2.788c.533.11 1.101.193 1.697.249-.077.79-.123 1.648-.135 2.538zm.135 3.476c-.595.056-1.163.14-1.697.248a9.056 9.056 0 0 1-.556-2.787h2.118c.012.89.058 1.749.135 2.539zm-3.414-6.755c.246.096.514.185.801.268a10.08 10.08 0 0 0-.578 3.01H9.674a6.308 6.308 0 0 1 1.21-3.278zM9.674 7.75h1.434c.045 1.067.243 2.09.578 3.01a9.177 9.177 0 0 0-.801.269A6.308 6.308 0 0 1 9.674 7.75zm1.866 4.038c.164-.056.337-.108.52-.158a6.687 6.687 0 0 0 .66 1.08 6.386 6.386 0 0 1-1.18-.922zm1.717.055a6.323 6.323 0 0 1-.254-.429 15.36 15.36 0 0 1 1.405-.194c.048.343.103.669.163.97.093.461.196.852.311 1.175-.6-.287-1.157-.803-1.625-1.522zm1.314-9.471c-.06.302-.115.627-.162.97a14.95 14.95 0 0 1-1.406-.194c.08-.147.165-.29.254-.428.468-.719 1.024-1.236 1.625-1.522a8.607 8.607 0 0 0-.31 1.174zm1.996 9.328c-.2 1.135-.434 1.661-.567 1.856-.133-.195-.366-.721-.567-1.856a16.06 16.06 0 0 1-.086-.538c.434-.015.872-.015 1.306 0a16.06 16.06 0 0 1-.086.538zm.198-1.472c-.508-.02-1.021-.02-1.53 0a29.78 29.78 0 0 1-.133-2.478h1.796a29.78 29.78 0 0 1-.133 2.478zm-1.663-3.415c.012-.867.057-1.708.133-2.478a19.217 19.217 0 0 0 1.53 0c.076.77.12 1.61.133 2.478h-1.796zm3.64-4.093c.09.137.175.28.255.428-.445.084-.916.15-1.405.195a16.536 16.536 0 0 0-.163-.971 8.607 8.607 0 0 0-.311-1.174c.6.286 1.157.803 1.625 1.522zm0 9.123c-.467.719-1.023 1.235-1.624 1.522.115-.323.218-.714.31-1.174.061-.302.116-.628.163-.971.491.045.961.11 1.406.194-.08.148-.165.291-.254.429zm.538.866a6.647 6.647 0 0 0 .66-1.08c.183.05.356.104.52.16-.355.35-.75.66-1.18.92zm1.835-1.68a9.166 9.166 0 0 0-.801-.268c.335-.921.533-1.944.578-3.011h1.434a6.308 6.308 0 0 1-1.21 3.279z"
      fill="#7D8097"></path>
    <path d="M23.18 6.064a.469.469 0 1 0-.925.155c.033.196.056.394.07.593h-1.433a10.076 10.076 0 0 0-.578-3.01c.288-.083.557-.173.804-.27.226.309.425.638.594.985a.469.469 0 1 0 .843-.41 7.299 7.299 0 0 0-2.638-2.965A7.26 7.26 0 0 0 16 0a7.27 7.27 0 0 0-5.65 2.695A7.247 7.247 0 0 0 8.718 7.28a7.246 7.246 0 0 0 1.676 4.642 7.27 7.27 0 0 0 11.214-.004A7.246 7.246 0 0 0 23.28 7.28c0-.408-.034-.818-.101-1.217zm-3.768-4.132c.381.244.733.526 1.051.841-.165.056-.339.11-.522.16a6.655 6.655 0 0 0-.663-1.083l.134.082zm-1.576 4.88a30.715 30.715 0 0 0-.135-2.538c.595-.056 1.163-.14 1.697-.249.32.843.51 1.792.556 2.787h-2.118zm2.118.938a9.059 9.059 0 0 1-.556 2.787 15.93 15.93 0 0 0-1.697-.248c.077-.79.123-1.649.135-2.539h2.118zm-4.521-4.888c.2-1.134.434-1.66.567-1.856.133.195.366.722.567 1.856.03.173.06.353.086.538-.434.016-.872.016-1.306 0 .027-.185.055-.365.086-.538zM12.72 1.853a6.738 6.738 0 0 0-.66 1.08 9.23 9.23 0 0 1-.52-.159c.355-.35.75-.66 1.18-.92zm1.444 4.96h-2.118a9.056 9.056 0 0 1 .556-2.788c.533.11 1.101.193 1.697.249-.077.79-.123 1.648-.135 2.538zm.135 3.476c-.595.056-1.163.14-1.697.248a9.056 9.056 0 0 1-.556-2.787h2.118c.012.89.058 1.749.135 2.539zm-3.414-6.755c.246.096.514.185.801.268a10.08 10.08 0 0 0-.578 3.01H9.674a6.308 6.308 0 0 1 1.21-3.278zM9.674 7.75h1.434c.045 1.067.243 2.09.578 3.01a9.177 9.177 0 0 0-.801.269A6.308 6.308 0 0 1 9.674 7.75zm1.866 4.038c.164-.056.337-.108.52-.158a6.687 6.687 0 0 0 .66 1.08 6.386 6.386 0 0 1-1.18-.922zm1.717.055a6.323 6.323 0 0 1-.254-.429 15.36 15.36 0 0 1 1.405-.194c.048.343.103.669.163.97.093.461.196.852.311 1.175-.6-.287-1.157-.803-1.625-1.522zm1.314-9.471c-.06.302-.115.627-.162.97a14.95 14.95 0 0 1-1.406-.194c.08-.147.165-.29.254-.428.468-.719 1.024-1.236 1.625-1.522a8.607 8.607 0 0 0-.31 1.174zm1.996 9.328c-.2 1.135-.434 1.661-.567 1.856-.133-.195-.366-.721-.567-1.856a16.06 16.06 0 0 1-.086-.538c.434-.015.872-.015 1.306 0a16.06 16.06 0 0 1-.086.538zm.198-1.472c-.508-.02-1.021-.02-1.53 0a29.78 29.78 0 0 1-.133-2.478h1.796a29.78 29.78 0 0 1-.133 2.478zm-1.663-3.415c.012-.867.057-1.708.133-2.478a19.217 19.217 0 0 0 1.53 0c.076.77.12 1.61.133 2.478h-1.796zm3.64-4.093c.09.137.175.28.255.428-.445.084-.916.15-1.405.195a16.536 16.536 0 0 0-.163-.971 8.607 8.607 0 0 0-.311-1.174c.6.286 1.157.803 1.625 1.522zm0 9.123c-.467.719-1.023 1.235-1.624 1.522.115-.323.218-.714.31-1.174.061-.302.116-.628.163-.971.491.045.961.11 1.406.194-.08.148-.165.291-.254.429zm.538.866a6.647 6.647 0 0 0 .66-1.08c.183.05.356.104.52.16-.355.35-.75.66-1.18.92zm1.835-1.68a9.166 9.166 0 0 0-.801-.268c.335-.921.533-1.944.578-3.011h1.434a6.308 6.308 0 0 1-1.21 3.279zm9.479 18.159h-.532V24a.469.469 0 1 0-.937 0v5.188h-2.813v-7.813h2.813V22a.469.469 0 1 0 .938 0v-1.094a.469.469 0 0 0-.47-.468h-3.75a.469.469 0 0 0-.468.468v8.282h-.5v-8.282a.469.469 0 0 0-.469-.468h-3.75a.469.469 0 0 0-.468.468v8.282h-8.594v-1.22a.469.469 0 0 0-.938 0v1.22H8.031v-.563H9a1.407 1.407 0 0 0 0-2.813H4.25a1.408 1.408 0 0 0 0 2.813h.969v.563H2.594v-4.063h8.062v.865a.469.469 0 0 0 .938 0v-.865h.212a.596.596 0 0 0 .575-.42.584.584 0 0 0-.235-.657l-5.18-3.507a.612.612 0 0 0-.681 0l-5.181 3.507a.584.584 0 0 0-.234.657c.077.251.307.42.574.42h.212v4.062h-.25a1.408 1.408 0 0 0 0 2.813h29.188a1.407 1.407 0 0 0 0-2.813zM8.03 26.75H9a.47.47 0 0 1 0 .938h-.969v-.938zm13.094-5.375h2.813v7.813h-2.813v-7.813zM6.156 26.75h.938v.938h-.938v-.938zm0 1.875h.938v.563h-.938v-.563zm-1.906-.938a.47.47 0 0 1 0-.937h.969v.938H4.25zm2.844-3.5h-.938v-.593a.47.47 0 0 1 .938 0v.593zm-.469-2.744l4.055 2.744H8.03v-.593c0-.776-.63-1.407-1.406-1.407-.775 0-1.406.631-1.406 1.407v.593H2.57l4.055-2.744zm23.969 9.62H1.406a.47.47 0 0 1 0-.938h29.188a.47.47 0 0 1 0 .938z"
      fill="#7D8097"></path>
    <path d="M30.594 29.188h-.532V24a.469.469 0 1 0-.937 0v5.188h-2.813v-7.813h2.813V22a.469.469 0 1 0 .938 0v-1.094a.469.469 0 0 0-.47-.468h-3.75a.469.469 0 0 0-.468.468v8.282h-.5v-8.282a.469.469 0 0 0-.469-.468h-3.75a.469.469 0 0 0-.468.468v8.282h-8.594v-1.22a.469.469 0 0 0-.938 0v1.22H8.031v-.563H9a1.407 1.407 0 0 0 0-2.813H4.25a1.408 1.408 0 0 0 0 2.813h.969v.563H2.594v-4.063h8.062v.865a.469.469 0 0 0 .938 0v-.865h.212a.596.596 0 0 0 .575-.42.584.584 0 0 0-.235-.657l-5.18-3.507a.612.612 0 0 0-.681 0l-5.181 3.507a.584.584 0 0 0-.234.657c.077.251.307.42.574.42h.212v4.062h-.25a1.408 1.408 0 0 0 0 2.813h29.188a1.407 1.407 0 0 0 0-2.813zM8.03 26.75H9a.47.47 0 0 1 0 .938h-.969v-.938zm13.094-5.375h2.813v7.813h-2.813v-7.813zM6.156 26.75h.938v.938h-.938v-.938zm0 1.875h.938v.563h-.938v-.563zm-1.906-.938a.47.47 0 0 1 0-.937h.969v.938H4.25zm2.844-3.5h-.938v-.593a.47.47 0 0 1 .938 0v.593zm-.469-2.744l4.055 2.744H8.03v-.593c0-.776-.63-1.407-1.406-1.407-.775 0-1.406.631-1.406 1.407v.593H2.57l4.055-2.744zm23.969 9.62H1.406a.47.47 0 0 1 0-.938h29.188a.47.47 0 0 1 0 .938z"
      fill="#7D8097"></path>
    <path d="M30.594 29.188h-.532V24a.469.469 0 1 0-.937 0v5.188h-2.813v-7.813h2.813V22a.469.469 0 1 0 .938 0v-1.094a.469.469 0 0 0-.47-.468h-3.75a.469.469 0 0 0-.468.468v8.282h-.5v-8.282a.469.469 0 0 0-.469-.468h-3.75a.469.469 0 0 0-.468.468v8.282h-8.594v-1.22a.469.469 0 0 0-.938 0v1.22H8.031v-.563H9a1.407 1.407 0 0 0 0-2.813H4.25a1.408 1.408 0 0 0 0 2.813h.969v.563H2.594v-4.063h8.062v.865a.469.469 0 0 0 .938 0v-.865h.212a.596.596 0 0 0 .575-.42.584.584 0 0 0-.235-.657l-5.18-3.507a.612.612 0 0 0-.681 0l-5.181 3.507a.584.584 0 0 0-.234.657c.077.251.307.42.574.42h.212v4.062h-.25a1.408 1.408 0 0 0 0 2.813h29.188a1.407 1.407 0 0 0 0-2.813zM8.03 26.75H9a.47.47 0 0 1 0 .938h-.969v-.938zm13.094-5.375h2.813v7.813h-2.813v-7.813zM6.156 26.75h.938v.938h-.938v-.938zm0 1.875h.938v.563h-.938v-.563zm-1.906-.938a.47.47 0 0 1 0-.937h.969v.938H4.25zm2.844-3.5h-.938v-.593a.47.47 0 0 1 .938 0v.593zm-.469-2.744l4.055 2.744H8.03v-.593c0-.776-.63-1.407-1.406-1.407-.775 0-1.406.631-1.406 1.407v.593H2.57l4.055-2.744zm23.969 9.62H1.406a.47.47 0 0 1 0-.938h29.188a.47.47 0 0 1 0 .938z"
      fill="#7D8097"></path>
    <path d="M23.16 23.417l-1.25-.01h-.004a.469.469 0 0 0-.004.937l1.25.01h.005a.469.469 0 0 0 .004-.937z" fill="#7D8097"></path>
    <path d="M23.16 23.417l-1.25-.01h-.004a.469.469 0 0 0-.004.937l1.25.01h.005a.469.469 0 0 0 .004-.937z" fill="#7D8097"></path>
    <path d="M23.16 23.417l-1.25-.01h-.004a.469.469 0 0 0-.004.937l1.25.01h.005a.469.469 0 0 0 .004-.937zm0 1.446l-1.25-.011h-.004a.469.469 0 0 0-.004.937l1.25.012h.005a.469.469 0 0 0 .004-.938z" fill="#7D8097"></path>
    <path d="M23.16 24.863l-1.25-.011h-.004a.469.469 0 0 0-.004.937l1.25.012h.005a.469.469 0 0 0 .004-.938z" fill="#7D8097"></path>
    <path d="M23.16 24.863l-1.25-.011h-.004a.469.469 0 0 0-.004.937l1.25.012h.005a.469.469 0 0 0 .004-.938zm0 1.446l-1.25-.011h-.004a.469.469 0 0 0-.004.937l1.25.011h.005a.469.469 0 0 0 .004-.937z" fill="#7D8097"></path>
    <path d="M23.16 26.309l-1.25-.011h-.004a.469.469 0 0 0-.004.937l1.25.011h.005a.469.469 0 0 0 .004-.937z" fill="#7D8097"></path>
    <path d="M23.16 26.309l-1.25-.011h-.004a.469.469 0 0 0-.004.937l1.25.011h.005a.469.469 0 0 0 .004-.937zm0 1.446l-1.25-.012h-.004a.469.469 0 0 0-.004.938l1.25.011h.005a.469.469 0 0 0 .004-.937z" fill="#7D8097"></path>
    <path d="M23.16 27.755l-1.25-.012h-.004a.469.469 0 0 0-.004.938l1.25.011h.005a.469.469 0 0 0 .004-.937z" fill="#7D8097"></path>
    <path d="M23.16 27.755l-1.25-.012h-.004a.469.469 0 0 0-.004.938l1.25.011h.005a.469.469 0 0 0 .004-.937zm5.188-4.338l-1.25-.01h-.004a.469.469 0 0 0-.004.937l1.25.01h.004a.469.469 0 0 0 .004-.937z" fill="#7D8097"></path>
    <path d="M28.348 23.417l-1.25-.01h-.004a.469.469 0 0 0-.004.937l1.25.01h.004a.469.469 0 0 0 .004-.937z" fill="#7D8097"></path>
    <path d="M28.348 23.417l-1.25-.01h-.004a.469.469 0 0 0-.004.937l1.25.01h.004a.469.469 0 0 0 .004-.937zm0 1.446l-1.25-.011h-.004a.469.469 0 0 0-.004.937l1.25.012h.004a.469.469 0 0 0 .004-.938z" fill="#7D8097"></path>
    <path d="M28.348 24.863l-1.25-.011h-.004a.469.469 0 0 0-.004.937l1.25.012h.004a.469.469 0 0 0 .004-.938z" fill="#7D8097"></path>
    <path d="M28.348 24.863l-1.25-.011h-.004a.469.469 0 0 0-.004.937l1.25.012h.004a.469.469 0 0 0 .004-.938zm0 1.446l-1.25-.011h-.004a.469.469 0 0 0-.004.937l1.25.011h.004a.469.469 0 0 0 .004-.937z" fill="#7D8097"></path>
    <path d="M28.348 26.309l-1.25-.011h-.004a.469.469 0 0 0-.004.937l1.25.011h.004a.469.469 0 0 0 .004-.937z" fill="#7D8097"></path>
    <path d="M28.348 26.309l-1.25-.011h-.004a.469.469 0 0 0-.004.937l1.25.011h.004a.469.469 0 0 0 .004-.937zm0 1.446l-1.25-.012h-.004a.469.469 0 0 0-.004.938l1.25.011h.004a.469.469 0 0 0 .004-.937z" fill="#7D8097"></path>
    <path d="M28.348 27.755l-1.25-.012h-.004a.469.469 0 0 0-.004.938l1.25.011h.004a.469.469 0 0 0 .004-.937z" fill="#7D8097"></path>
    <path d="M28.348 27.755l-1.25-.012h-.004a.469.469 0 0 0-.004.938l1.25.011h.004a.469.469 0 0 0 .004-.937zm-6.39-4.877a.469.469 0 1 0 0-.937.469.469 0 0 0 0 .937z" fill="#7D8097"></path>
    <path d="M21.958 22.878a.469.469 0 1 0 0-.937.469.469 0 0 0 0 .937z" fill="#7D8097"></path>
    <path d="M21.958 22.878a.469.469 0 1 0 0-.937.469.469 0 0 0 0 .937zm5.187 0a.469.469 0 1 0 0-.937.469.469 0 0 0 0 .937z" fill="#7D8097"></path>
    <path d="M27.145 22.878a.469.469 0 1 0 0-.937.469.469 0 0 0 0 .937z" fill="#7D8097"></path>
    <path d="M27.145 22.878a.469.469 0 1 0 0-.937.469.469 0 0 0 0 .937zM5.912 10.955a.469.469 0 0 0-.36-.434l-1.334-.317a.469.469 0 0 0-.217.912l.375.09c-1.97 1.61-2.37 3.452-2.332 4.773.044 1.578.7 2.74.728 2.79a.468.468 0 0 0 .814-.466c-.088-.155-2.007-3.647 1.431-6.412l.025.517a.469.469 0 1 0 .936-.044l-.066-1.409z"
      fill="#7D8097"></path>
    <path d="M5.912 10.955a.469.469 0 0 0-.36-.434l-1.334-.317a.469.469 0 0 0-.217.912l.375.09c-1.97 1.61-2.37 3.452-2.332 4.773.044 1.578.7 2.74.728 2.79a.468.468 0 0 0 .814-.466c-.088-.155-2.007-3.647 1.431-6.412l.025.517a.469.469 0 1 0 .936-.044l-.066-1.409z"
      fill="#7D8097"></path>
    <path d="M5.912 10.955a.469.469 0 0 0-.36-.434l-1.334-.317a.469.469 0 0 0-.217.912l.375.09c-1.97 1.61-2.37 3.452-2.332 4.773.044 1.578.7 2.74.728 2.79a.468.468 0 0 0 .814-.466c-.088-.155-2.007-3.647 1.431-6.412l.025.517a.469.469 0 1 0 .936-.044l-.066-1.409zm23.496 7.183a.469.469 0 0 0-.552-.366l-.377.076c1.112-2.29.701-4.128.113-5.312-.702-1.414-1.786-2.193-1.831-2.226a.469.469 0 1 0-.543.765c.01.006.936.673 1.535 1.878.703 1.416.653 2.941-.145 4.542l-.239-.46a.469.469 0 1 0-.831.434l.651 1.25a.469.469 0 0 0 .509.243l1.343-.271a.469.469 0 0 0 .367-.553z"
      fill="#7D8097"></path>
    <path d="M29.408 18.138a.469.469 0 0 0-.552-.366l-.377.076c1.112-2.29.701-4.128.113-5.312-.702-1.414-1.786-2.193-1.831-2.226a.469.469 0 1 0-.543.765c.01.006.936.673 1.535 1.878.703 1.416.653 2.941-.145 4.542l-.239-.46a.469.469 0 1 0-.831.434l.651 1.25a.469.469 0 0 0 .509.243l1.343-.271a.469.469 0 0 0 .367-.553z"
      fill="#7D8097"></path>
    <path d="M29.408 18.138a.469.469 0 0 0-.552-.366l-.377.076c1.112-2.29.701-4.128.113-5.312-.702-1.414-1.786-2.193-1.831-2.226a.469.469 0 1 0-.543.765c.01.006.936.673 1.535 1.878.703 1.416.653 2.941-.145 4.542l-.239-.46a.469.469 0 1 0-.831.434l.651 1.25a.469.469 0 0 0 .509.243l1.343-.271a.469.469 0 0 0 .367-.553z"
      fill="#7D8097"></path>
  </symbol>
  <symbol viewBox="0 0 32 32" fill="none" xmlns="http://www.w3.org/2000/svg" id="devices">
    <path d="M26.428 8.276H5.572a.689.689 0 0 0-.688.688v10.402a.689.689 0 1 0 1.377 0V9.653h19.478v9.713a.689.689 0 0 0 1.378 0V8.964a.689.689 0 0 0-.689-.688z" fill="#7D8097"></path>
    <path d="M31.38 21.825h-1.268V7.362a2.084 2.084 0 0 0-2.082-2.081H3.97a2.084 2.084 0 0 0-2.082 2.081v14.463H.62a.62.62 0 0 0-.62.62v1.217a3.061 3.061 0 0 0 3.058 3.058h25.884A3.061 3.061 0 0 0 32 23.662v-1.217a.62.62 0 0 0-.62-.62zM3.266 7.362c0-.388.316-.704.704-.704h24.06c.388 0 .704.316.704.704v14.463H19.41a.62.62 0 0 0-.637.62.95.95 0 0 1-.948.948h-3.648a.95.95 0 0 1-.948-.948.622.622 0 0 0-.635-.62H3.266V7.362zm27.494 16.3a1.82 1.82 0 0 1-1.818 1.818H3.058a1.82 1.82 0 0 1-1.818-1.818v-.597h10.837a2.192 2.192 0 0 0 2.1 1.568h3.647c.991 0 1.83-.663 2.099-1.568H30.76v.597z"
      fill="#7D8097"></path>
    <path d="M17.02 12.279a.689.689 0 0 0-.973 0l-4.331 4.33a.689.689 0 0 0 .974.975l4.33-4.331a.689.689 0 0 0 0-.974zm2.568 2.51a.689.689 0 0 0-.974 0l-1.726 1.725a.689.689 0 0 0 .974.974l1.726-1.725a.689.689 0 0 0 0-.974z" fill="#7D8097"></path>
  </symbol>
  <symbol viewBox="0 0 32 32" fill="none" xmlns="http://www.w3.org/2000/svg" id="devices-relationships">
    <g clip-path="url(#clip0)" fill="#7D8097">
      <path d="M8.65 26.28a1.32 1.32 0 0 0-1.318-1.319 1.32 1.32 0 0 0-1.318 1.319 1.32 1.32 0 0 0 1.318 1.317A1.32 1.32 0 0 0 8.65 26.28zm-1.318.38a.38.38 0 1 1 .001-.761.38.38 0 0 1 0 .76zm.846-21.05a.469.469 0 1 0 0-.937H6.487a.469.469 0 1 0 0 .938h1.69zm15.047 20.67a1.32 1.32 0 0 0 1.318 1.317 1.32 1.32 0 0 0 1.318-1.318 1.32 1.32 0 0 0-1.318-1.318 1.32 1.32 0 0 0-1.318 1.319zm1.698 0a.38.38 0 1 1-.761-.001.38.38 0 0 1 .761 0zM23.698 4.673a.469.469 0 1 0 0 .938h1.69a.469.469 0 1 0 0-.938h-1.69z"></path>
      <path d="M29.75 3.187H19.336a2.19 2.19 0 0 0-2.188 2.188v7.619h-2.421V5.375a2.19 2.19 0 0 0-2.188-2.188H2.125A2.19 2.19 0 0 0-.063 5.375v21.276c0 1.089.852 2.188 2.188 2.188h4.113a.469.469 0 1 0 0-.938H2.125c-.79 0-1.25-.674-1.25-1.25V5.375c0-.69.561-1.25 1.25-1.25H12.54c.69 0 1.25.56 1.25 1.25v7.619h-.557V6.87a.702.702 0 0 0-.693-.693H2.125a.702.702 0 0 0-.693.693v17.19c0 .376.318.693.693.693H12.54a.702.702 0 0 0 .693-.693v-5.028h.557v7.619c0 .728-.605 1.25-1.25 1.25H8.426a.469.469 0 0 0 0 .938h4.113c1.144 0 2.188-.936 2.188-2.188v-7.619h2.421v7.619c0 1.089.852 2.188 2.188 2.188H29.75c1.126 0 2.188-.918 2.188-2.188v-9.544a.469.469 0 0 0-.938 0v9.544c0 .728-.605 1.25-1.25 1.25H19.336c-.773 0-1.25-.652-1.25-1.25v-7.619h.557v5.028c0 .376.317.693.693.693H29.75a.702.702 0 0 0 .693-.693V6.87a.702.702 0 0 0-.693-.693H19.336a.702.702 0 0 0-.693.693v6.124h-.557V5.375c0-.69.56-1.25 1.25-1.25H29.75c.689 0 1.25.56 1.25 1.25v9.544a.469.469 0 1 0 .938 0V5.375a2.19 2.19 0 0 0-2.188-2.188zM2.37 7.114h1.053v.811H2.37v-.81zm9.924 5.88H8.513a.469.469 0 0 0 0 .937h3.781v4.164h-1.221v-.722a.655.655 0 0 0-1.028-.539l-1.72 1.191a.656.656 0 0 0 0 1.077l1.72 1.19a.656.656 0 0 0 1.028-.538v-.722h1.221v4.783H2.37V8.862h9.924v4.132zm-2.159 4.918v1.303l-.94-.651.94-.652zm2.16-9.987H4.36v-.81h7.933v.81zm1.494 10.17h-.557V13.93h.557v4.164zm3.36 0h-2.422V13.93h2.421v4.164zm4.423-10.98h7.933v.81h-7.933v-.81zm-1.991 0h1.053v.81h-1.053v-.81zm0 11.917h3.798a.469.469 0 1 0 0-.937h-3.798V13.93h1.238v.722c0 .528.594.84 1.029.539l1.718-1.19a.656.656 0 0 0 0-1.078l-1.718-1.19a.656.656 0 0 0-1.029.538v.722h-1.238v-4.13h9.924v14.952h-9.924v-4.783zm2.176-4.918v-1.303l.94.651-.94.652zm-3.114-.183v4.164h-.557V13.93h.557z"></path>
    </g>
    <defs>
      <clipPath id="clip0">
        <path fill="#fff" d="M0 0h32v32H0z"></path>
      </clipPath>
    </defs>
  </symbol>
</svg>